<svg width="32" height="32" viewBox="0 0 32 32" fill="none" xmlns="http://www.w3.org/2000/svg">
<circle cx="17.0002" cy="9" r="9" fill="url(#paint0_linear_11760_25706)"/>
<path d="M8.00195 9.17383C7.5199 9.06055 7.01697 9 6.5 9C2.91016 9 0 11.9102 0 15.5C0 17.2949 0.727539 18.9199 1.90381 20.0957C3.08008 21.2734 4.70508 22 6.5 22L6.63623 21.998C7.03369 21.9902 7.42236 21.9473 7.79919 21.8711C8.42139 21.7441 9.01123 21.5293 9.55603 21.2383C10.0732 20.9629 10.5497 20.6172 10.9745 20.2148L13.9187 17.459C10.5175 16.2188 8.07446 12.9863 8.00195 9.17383Z" fill="url(#paint1_linear_11760_25706)"/>
<path d="M10.9673 20.2216C9.80261 21.3239 8.23025 22 6.5 22C4.61879 22 2.92423 21.2008 1.7373 19.9235C2.14017 20.4022 7.74191 26.4152 10.8319 29.7227L10.8325 29.7218C12.1124 31.1218 13.9536 32 15.9999 32C18.0891 32 19.9646 31.0841 21.2472 29.6331L30.1243 20.0683C31.284 18.8946 31.9999 17.2802 31.9999 15.5C31.9999 11.9102 29.0897 9 25.4999 9C23.6212 9 21.9288 9.79719 20.7421 11.0722L15.6667 15.8223V15.8233L10.9745 20.2157L10.9809 20.2216H10.9673Z" fill="url(#paint2_linear_11760_25706)"/>
<defs>
<linearGradient id="paint0_linear_11760_25706" x1="8.37433" y1="-0.937895" x2="20.9363" y2="18.5943" gradientUnits="userSpaceOnUse">
<stop offset="0.176282" stop-color="#98BEF5"/>
<stop offset="0.94425" stop-color="#3F6FD1"/>
</linearGradient>
<linearGradient id="paint1_linear_11760_25706" x1="0.394136" y1="7.7237" x2="10.0075" y2="21.6146" gradientUnits="userSpaceOnUse">
<stop offset="0.1947" stop-color="#4A6DC4"/>
<stop offset="0.9988" stop-color="#16296F"/>
</linearGradient>
<linearGradient id="paint2_linear_11760_25706" x1="26.5641" y1="28.8956" x2="18.298" y2="8.85092" gradientUnits="userSpaceOnUse">
<stop stop-color="#283B73"/>
<stop offset="1" stop-color="#436DCD"/>
</linearGradient>
</defs>
</svg>
