<svg width="64" height="64" viewBox="0 0 64 64" fill="none" xmlns="http://www.w3.org/2000/svg">
<path d="M14 28C14 24.6863 16.6863 22 20 22H44C47.3137 22 50 24.6863 50 28V42C50 51.9411 41.9411 60 32 60C22.0589 60 14 51.9411 14 42V28Z" fill="url(#paint0_linear_168_21995)"/>
<path d="M14 28C14 24.6863 16.6863 22 20 22H44C47.3137 22 50 24.6863 50 28V42C50 51.9411 41.9411 60 32 60C22.0589 60 14 51.9411 14 42V28Z" fill="url(#paint1_radial_168_21995)"/>
<path d="M14 28C14 24.6863 16.6863 22 20 22H44C47.3137 22 50 24.6863 50 28V42C50 51.9411 41.9411 60 32 60C22.0589 60 14 51.9411 14 42V28Z" fill="url(#paint2_radial_168_21995)"/>
<g opacity="0.7">
<rect x="18" y="42" width="11" height="10" rx="1.07185" fill="url(#paint3_linear_168_21995)" fill-opacity="0.8"/>
<rect x="18" y="42" width="11" height="10" rx="1.07185" fill="url(#paint4_linear_168_21995)"/>
<rect x="18" y="42" width="11" height="10" rx="1.07185" fill="url(#paint5_linear_168_21995)"/>
</g>
<rect x="32" y="27" width="12" height="10" rx="1.07185" fill="url(#paint6_linear_168_21995)"/>
<rect x="32" y="27" width="12" height="10" rx="1.07185" fill="url(#paint7_linear_168_21995)"/>
<rect x="32" y="27" width="12" height="10" rx="1.07185" fill="url(#paint8_linear_168_21995)"/>
<rect x="32" y="27" width="12" height="10" rx="1.07185" fill="url(#paint9_linear_168_21995)"/>
<rect x="32" y="27" width="12" height="10" rx="1.07185" fill="url(#paint10_radial_168_21995)"/>
<circle cx="32" cy="12" r="8" fill="url(#paint11_linear_168_21995)"/>
<rect x="20" y="40" width="10" height="10" rx="1.5" fill="url(#paint12_linear_168_21995)"/>
<rect x="20" y="40" width="10" height="10" rx="1.5" fill="url(#paint13_radial_168_21995)"/>
<rect x="20" y="40" width="10" height="10" rx="1.5" fill="url(#paint14_radial_168_21995)"/>
<rect x="20" y="40" width="10" height="10" rx="1.5" fill="url(#paint15_radial_168_21995)"/>
<path d="M37.9898 26.5947C38.4564 25.8018 39.5436 25.8018 40.0102 26.5947L43.817 33.0642C44.3129 33.9069 43.7425 35 42.8069 35H35.1931C34.2575 35 33.6871 33.9069 34.183 33.0642L37.9898 26.5947Z" fill="url(#paint16_linear_168_21995)"/>
<path d="M37.9898 26.5947C38.4564 25.8018 39.5436 25.8018 40.0102 26.5947L43.817 33.0642C44.3129 33.9069 43.7425 35 42.8069 35H35.1931C34.2575 35 33.6871 33.9069 34.183 33.0642L37.9898 26.5947Z" fill="url(#paint17_linear_168_21995)"/>
<path d="M37.9898 26.5947C38.4564 25.8018 39.5436 25.8018 40.0102 26.5947L43.817 33.0642C44.3129 33.9069 43.7425 35 42.8069 35H35.1931C34.2575 35 33.6871 33.9069 34.183 33.0642L37.9898 26.5947Z" fill="url(#paint18_radial_168_21995)"/>
<path d="M37.9898 26.5947C38.4564 25.8018 39.5436 25.8018 40.0102 26.5947L43.817 33.0642C44.3129 33.9069 43.7425 35 42.8069 35H35.1931C34.2575 35 33.6871 33.9069 34.183 33.0642L37.9898 26.5947Z" fill="url(#paint19_radial_168_21995)"/>
<circle cx="25" cy="31" r="5" fill="url(#paint20_radial_168_21995)"/>
<circle cx="25" cy="31" r="5" fill="url(#paint21_radial_168_21995)" fill-opacity="0.5"/>
<circle cx="25" cy="31" r="5" fill="url(#paint22_radial_168_21995)" fill-opacity="0.8"/>
<circle cx="39" cy="45" r="5" fill="url(#paint23_radial_168_21995)"/>
<circle cx="39" cy="45" r="5" fill="url(#paint24_radial_168_21995)" fill-opacity="0.5"/>
<circle cx="39" cy="45" r="5" fill="url(#paint25_radial_168_21995)" fill-opacity="0.8"/>
<path d="M27.75 30.375C27.75 30.5821 27.5821 30.75 27.375 30.75C27.1679 30.75 27 30.5821 27 30.375C27 30.1679 27.1679 30 27.375 30C27.5821 30 27.75 30.1679 27.75 30.375Z" fill="#72EAD7"/>
<path d="M27.75 46.375C27.75 46.5821 27.5821 46.75 27.375 46.75C27.1679 46.75 27 46.5821 27 46.375C27 46.1679 27.1679 46 27.375 46C27.5821 46 27.75 46.1679 27.75 46.375Z" fill="#FFD9B6"/>
<path d="M41.75 43.375C41.75 43.5821 41.5821 43.75 41.375 43.75C41.1679 43.75 41 43.5821 41 43.375C41 43.1679 41.1679 43 41.375 43C41.5821 43 41.75 43.1679 41.75 43.375Z" fill="#D1FC6B"/>
<path d="M23 47.5C23 47.7761 22.7761 48 22.5 48C22.2239 48 22 47.7761 22 47.5C22 47.2239 22.2239 47 22.5 47C22.7761 47 23 47.2239 23 47.5Z" fill="#FFD9B6"/>
<path d="M40.75 30.375C40.75 30.5821 40.5821 30.75 40.375 30.75C40.1679 30.75 40 30.5821 40 30.375C40 30.1679 40.1679 30 40.375 30C40.5821 30 40.75 30.1679 40.75 30.375Z" fill="#FFACBE"/>
<path d="M24.75 44.375C24.75 44.5821 24.5821 44.75 24.375 44.75C24.1679 44.75 24 44.5821 24 44.375C24 44.1679 24.1679 44 24.375 44C24.5821 44 24.75 44.1679 24.75 44.375Z" fill="#FFD9B6"/>
<path d="M38.75 47.375C38.75 47.5821 38.5821 47.75 38.375 47.75C38.1679 47.75 38 47.5821 38 47.375C38 47.1679 38.1679 47 38.375 47C38.5821 47 38.75 47.1679 38.75 47.375Z" fill="#D1FC6B"/>
<path d="M37 45.5C37 45.7761 36.7761 46 36.5 46C36.2239 46 36 45.7761 36 45.5C36 45.2239 36.2239 45 36.5 45C36.7761 45 37 45.2239 37 45.5Z" fill="#D1FC6B"/>
<path d="M24 33.5C24 33.7761 23.7761 34 23.5 34C23.2239 34 23 33.7761 23 33.5C23 33.2239 23.2239 33 23.5 33C23.7761 33 24 33.2239 24 33.5Z" fill="#72EAD7"/>
<path d="M38 32.5C38 32.7761 37.7761 33 37.5 33C37.2239 33 37 32.7761 37 32.5C37 32.2239 37.2239 32 37.5 32C37.7761 32 38 32.2239 38 32.5Z" fill="#FFACBE"/>
<defs>
<linearGradient id="paint0_linear_168_21995" x1="45.5" y1="17.5" x2="9.11323" y2="80.5859" gradientUnits="userSpaceOnUse">
<stop offset="0.367698" stop-color="#E7E7E7"/>
<stop offset="0.788937" stop-color="#C5B4E3"/>
</linearGradient>
<radialGradient id="paint1_radial_168_21995" cx="0" cy="0" r="1" gradientUnits="userSpaceOnUse" gradientTransform="translate(24.5 32) rotate(112.62) scale(6.5 6.1579)">
<stop offset="0.78521" stop-color="#B3ACB8"/>
<stop offset="1" stop-color="#E7E7E7" stop-opacity="0"/>
</radialGradient>
<radialGradient id="paint2_radial_168_21995" cx="0" cy="0" r="1" gradientUnits="userSpaceOnUse" gradientTransform="translate(38.5 46) rotate(112.62) scale(6.5 6.15789)">
<stop offset="0.78521" stop-color="#B3ACB8"/>
<stop offset="1" stop-color="#E7E7E7" stop-opacity="0"/>
</radialGradient>
<linearGradient id="paint3_linear_168_21995" x1="18" y1="46.5151" x2="28.9997" y2="46.6411" gradientUnits="userSpaceOnUse">
<stop stop-color="#D8D1E5" stop-opacity="0"/>
<stop offset="0.114025" stop-color="#A99FAF"/>
<stop offset="0.892803" stop-color="#A99FAF"/>
<stop offset="1" stop-color="#DDD8E6" stop-opacity="0"/>
</linearGradient>
<linearGradient id="paint4_linear_168_21995" x1="23.5" y1="52" x2="23.5" y2="43.2859" gradientUnits="userSpaceOnUse">
<stop offset="0.0347291" stop-color="#D7D0E5"/>
<stop offset="0.133348" stop-color="#D7CEE5" stop-opacity="0"/>
</linearGradient>
<linearGradient id="paint5_linear_168_21995" x1="23.5" y1="42" x2="23.5" y2="43.2859" gradientUnits="userSpaceOnUse">
<stop offset="0.230441" stop-color="#DED9E6"/>
<stop offset="1" stop-color="#F0D7F4" stop-opacity="0"/>
</linearGradient>
<linearGradient id="paint6_linear_168_21995" x1="32" y1="31.5151" x2="43.9994" y2="31.6651" gradientUnits="userSpaceOnUse">
<stop stop-color="#E7E7E7" stop-opacity="0"/>
<stop offset="0.114025" stop-color="#B3ACB8"/>
<stop offset="0.892803" stop-color="#B3ACB8"/>
<stop offset="1" stop-color="#E7E7E7" stop-opacity="0"/>
</linearGradient>
<linearGradient id="paint7_linear_168_21995" x1="38" y1="37" x2="38" y2="28.2859" gradientUnits="userSpaceOnUse">
<stop offset="0.0347291" stop-color="#E7E7E7"/>
<stop offset="0.133348" stop-color="#E7E7E7" stop-opacity="0"/>
</linearGradient>
<linearGradient id="paint8_linear_168_21995" x1="35" y1="29" x2="37.5" y2="30.5" gradientUnits="userSpaceOnUse">
<stop offset="0.307697" stop-color="#E7E7E7"/>
<stop offset="0.754292" stop-color="#E7E7E7" stop-opacity="0"/>
</linearGradient>
<linearGradient id="paint9_linear_168_21995" x1="41.6" y1="30" x2="40.4971" y2="30.6618" gradientUnits="userSpaceOnUse">
<stop offset="0.230441" stop-color="#E7E7E7"/>
<stop offset="1" stop-color="#E7E7E7" stop-opacity="0"/>
</linearGradient>
<radialGradient id="paint10_radial_168_21995" cx="0" cy="0" r="1" gradientUnits="userSpaceOnUse" gradientTransform="translate(38.5 33.5) scale(8 5.50725)">
<stop offset="0.644065" stop-color="#E7E7E7" stop-opacity="0"/>
<stop offset="0.779854" stop-color="#E7E7E7"/>
</radialGradient>
<linearGradient id="paint11_linear_168_21995" x1="39.0303" y1="2.98734" x2="21.2861" y2="29.8484" gradientUnits="userSpaceOnUse">
<stop offset="0.367698" stop-color="#E7E7E7"/>
<stop offset="0.788937" stop-color="#C5B4E3"/>
</linearGradient>
<linearGradient id="paint12_linear_168_21995" x1="16" y1="37" x2="28.2013" y2="52.6238" gradientUnits="userSpaceOnUse">
<stop offset="0.13563" stop-color="#EF6E00"/>
<stop offset="0.608914" stop-color="#FD9413"/>
<stop offset="1" stop-color="#FFBA69"/>
</linearGradient>
<radialGradient id="paint13_radial_168_21995" cx="0" cy="0" r="1" gradientUnits="userSpaceOnUse" gradientTransform="translate(26 49.5) rotate(180) scale(17 2.46653)">
<stop stop-color="#DB6E09"/>
<stop offset="0.650273" stop-color="#FF9026" stop-opacity="0"/>
</radialGradient>
<radialGradient id="paint14_radial_168_21995" cx="0" cy="0" r="1" gradientTransform="matrix(-11.9167 -1.71331e-07 0.974296 -2.35746 26.5 40)" gradientUnits="userSpaceOnUse">
<stop stop-color="#FBF2EB" stop-opacity="0.8"/>
<stop offset="0.650273" stop-color="#FBF2EB" stop-opacity="0"/>
</radialGradient>
<radialGradient id="paint15_radial_168_21995" cx="0" cy="0" r="1" gradientUnits="userSpaceOnUse" gradientTransform="translate(29 41.5) rotate(114.775) scale(7.15891 9.46368)">
<stop stop-color="#FBF2EB" stop-opacity="0.5"/>
<stop offset="0.985793" stop-color="#FBA440" stop-opacity="0"/>
</radialGradient>
<linearGradient id="paint16_linear_168_21995" x1="33.5" y1="26.5" x2="43.2344" y2="41.473" gradientUnits="userSpaceOnUse">
<stop stop-color="#FD29E7"/>
<stop offset="0.506285" stop-color="#F9676E"/>
<stop offset="1" stop-color="#FB409A"/>
</linearGradient>
<linearGradient id="paint17_linear_168_21995" x1="36" y1="30.5" x2="38.5" y2="32" gradientUnits="userSpaceOnUse">
<stop offset="0.0218876" stop-color="#FFAABF"/>
<stop offset="0.614977" stop-color="#FFAABF" stop-opacity="0"/>
</linearGradient>
<radialGradient id="paint18_radial_168_21995" cx="0" cy="0" r="1" gradientUnits="userSpaceOnUse" gradientTransform="translate(40 34.55) rotate(180) scale(17 2.21988)">
<stop stop-color="#FF285C"/>
<stop offset="0.650273" stop-color="#FF5A82" stop-opacity="0"/>
</radialGradient>
<radialGradient id="paint19_radial_168_21995" cx="0" cy="0" r="1" gradientUnits="userSpaceOnUse" gradientTransform="translate(41.5 30.5) rotate(-119.745) scale(4.03113 1.00778)">
<stop stop-color="#FBF2EB" stop-opacity="0.3"/>
<stop offset="0.985793" stop-color="#FFAABF" stop-opacity="0"/>
</radialGradient>
<radialGradient id="paint20_radial_168_21995" cx="0" cy="0" r="1" gradientUnits="userSpaceOnUse" gradientTransform="translate(25.9457 28.7086) rotate(108.435) scale(9.19199)">
<stop stop-color="#BCF2FF"/>
<stop offset="0.25" stop-color="#4ECBFF"/>
<stop offset="0.645065" stop-color="#0083F5"/>
<stop offset="1" stop-color="#C955FF"/>
</radialGradient>
<radialGradient id="paint21_radial_168_21995" cx="0" cy="0" r="1" gradientUnits="userSpaceOnUse" gradientTransform="translate(24.8276 36) rotate(-90) scale(3.62069 7.15517)">
<stop stop-color="#DEB3FF"/>
<stop offset="1" stop-color="#CC99FF" stop-opacity="0"/>
</radialGradient>
<radialGradient id="paint22_radial_168_21995" cx="0" cy="0" r="1" gradientUnits="userSpaceOnUse" gradientTransform="translate(25 31) rotate(97.8153) scale(8.87554)">
<stop offset="0.446038" stop-color="white" stop-opacity="0"/>
<stop offset="0.841379" stop-color="white"/>
</radialGradient>
<radialGradient id="paint23_radial_168_21995" cx="0" cy="0" r="1" gradientUnits="userSpaceOnUse" gradientTransform="translate(39.9457 42.7086) rotate(108.435) scale(9.19199)">
<stop stop-color="#F1FFB7"/>
<stop offset="0.25" stop-color="#B9DC4E"/>
<stop offset="0.645065" stop-color="#6FB12F"/>
<stop offset="1" stop-color="#FF7C03"/>
</radialGradient>
<radialGradient id="paint24_radial_168_21995" cx="0" cy="0" r="1" gradientUnits="userSpaceOnUse" gradientTransform="translate(38.8276 50) rotate(-90) scale(3.62069 7.15517)">
<stop stop-color="#FFAB5D"/>
<stop offset="1" stop-color="#FFC499" stop-opacity="0"/>
</radialGradient>
<radialGradient id="paint25_radial_168_21995" cx="0" cy="0" r="1" gradientUnits="userSpaceOnUse" gradientTransform="translate(39 45) rotate(97.8153) scale(8.87554)">
<stop offset="0.446038" stop-color="white" stop-opacity="0"/>
<stop offset="0.841379" stop-color="white"/>
</radialGradient>
</defs>
</svg>
